<svg xmlns="http://www.w3.org/2000/svg" version="1.1" xmlns:xlink="http://www.w3.org/1999/xlink" xmlns:svgjs="http://svgjs.com/svgjs" width="1440" height="560" preserveAspectRatio="none" viewBox="0 0 1440 560"><g mask="url(&quot;#SvgjsMask1024&quot;)" fill="none"><rect width="1440" height="560" x="0" y="0" fill="#0e2a47"></rect><path d="M -696.1788269407389,320 C -552.18,284.2 -264.18,120.8 23.821173059261103,141 C 311.82,161.2 455.82,433.2 743.8211730592611,421 C 1031.82,408.8 1324.59,81.6 1463.8211730592611,80 C 1603.06,78.4 1444.76,346.4 1440,413" stroke="rgba(51, 121, 194, 0.58)" stroke-width="2"></path><path d="M -95.68613149576095,111 C 48.31,172.2 336.31,424 624.313868504239,417 C 912.31,410 1056.31,73.8 1344.313868504239,76 C 1632.31,78.2 2045.18,417 2064.313868504239,428 C 2083.45,439 1564.86,190.4 1440,131" stroke="rgba(51, 121, 194, 0.58)" stroke-width="2"></path><path d="M -285.34505797582193,276 C -141.35,295 146.65,414.6 434.65494202417807,371 C 722.65,327.4 866.65,52.2 1154.6549420241781,58 C 1442.65,63.8 1817.59,389.8 1874.6549420241781,400 C 1931.72,410.2 1526.93,167.2 1440,109" stroke="rgba(51, 121, 194, 0.58)" stroke-width="2"></path><path d="M -976.209386980443,342 C -832.21,295.8 -544.21,79.4 -256.20938698044296,111 C 31.79,142.6 175.79,468.6 463.79061301955704,500 C 751.79,531.4 988.55,289.2 1183.790613019557,268 C 1379.03,246.8 1388.76,368.8 1440,394" stroke="rgba(51, 121, 194, 0.58)" stroke-width="2"></path></g><defs><mask id="SvgjsMask1024"><rect width="1440" height="560" fill="#ffffff"></rect></mask></defs></svg>